<svg xmlns="http://www.w3.org/2000/svg" viewBox="0 0 512 512" width="24" height="24">
  <path d="M22,1 C27.688,1 33.376,1 39.647,1.368 C41.152,1.997 42.114,2.165 42.991,2.534 C59.831,9.618 76.638,16.780 93.498,23.815 C114.488,32.573 135.544,41.173 156.529,49.945 C180.183,59.831 203.769,69.883 227.424,79.768 C248.410,88.538 269.475,97.120 290.460,105.892 C314.114,115.779 337.688,125.854 361.351,135.719 C385.007,145.581 408.740,155.259 432.420,165.067 C450.179,172.423 467.994,179.658 485.601,187.365 C491.569,189.978 498.330,192.701 502.384,197.398 C514.092,210.962 511.000,233.992 493.407,241.131 C475.159,248.538 456.845,255.786 438.512,262.982 C416.748,271.524 394.940,279.954 373.138,288.399 C354.473,295.629 335.666,302.514 317.200,310.219 C312.407,312.218 307.440,315.938 304.694,320.236 C299.816,327.873 296.469,336.507 292.670,344.811 C285.131,361.291 277.650,377.799 270.276,394.354 C261.536,413.976 252.905,433.647 244.283,453.321 C239.783,463.591 235.770,474.093 230.852,484.156 C227.063,491.909 225.000,500.800 217.852,506.604 C215.031,508.895 211.958,510.877 209,513 C202.979,513 196.958,513 190.384,512.651 C181.347,508.352 175.283,502.021 172.091,493.264 C158.827,456.875 145.747,420.419 132.506,384.022 C119.866,349.278 107.088,314.584 94.409,279.854 C81.401,244.222 68.461,208.565 55.450,172.933 C45.844,146.626 36.182,120.339 26.524,94.050 C20.064,76.469 13.397,58.962 7.139,41.310 C1.756,26.126 4.942,11.315 20.589,2.992 C21.231,2.651 21.537,1.678 22,1 Z" fill="#ccff00"/>
</svg>
